<?xml version="1.0" encoding="UTF-8"?>
<svg
	id="_Слой_1"
	data-name="Слой 1"
	xmlns="http://www.w3.org/2000/svg"
	viewBox="96 421.15 808.01 149.82"
	width="808.01"
	height="149.82"
>
  <defs>
    <style>
      .cls-1 {
        fill: #b08a55;
      }
    </style>
  </defs>
  <path class="cls-1" d="M229.74,474.54h0c-.45,0-.86-.24-1.08-.63l-22.43-39.65,2.16-1.22,21.35,37.73,21.35-37.73,2.16,1.22-22.43,39.65c-.22.39-.63.63-1.08.63Z"/>
  <path class="cls-1" d="M205.27,453.37c-30.48-28.22-77.62-25.88-105.27,5.25l6.49,6c26.03-29.27,70.37-31.49,99.07-4.93,27.02,24.99,30.54,66.6,9.12,95.84,10.08-13.58,15.06-29.71,15.06-45.8,0-20.71-8.24-41.35-24.47-56.36Z"/>
  <path class="cls-1" d="M215.12,554.83s.08-.12.14-.19c.25-.36.49-.73.75-1.09.24-.36.48-.73.71-1.09.14-.23.29-.43.41-.66.39-.61.76-1.23,1.12-1.86.17-.29.34-.57.49-.85.03-.07.08-.14.12-.21.12-.23.25-.47.39-.71.14-.23.25-.47.37-.71.03-.05.07-.12.1-.17.15-.29.31-.59.44-.9.17-.29.31-.59.46-.9.15-.29.29-.61.42-.92.41-.83.78-1.68,1.12-2.51.19-.43.37-.88.53-1.32.27-.64.51-1.27.73-1.91.22-.61.42-1.21.63-1.84v-.07c.05-.16.1-.33.15-.49.17-.5.32-1.01.46-1.53.1-.29.17-.57.25-.87s.15-.59.24-.88c.15-.57.31-1.14.42-1.72.08-.31.15-.62.22-.95.15-.66.27-1.32.41-1.98.08-.5.19-.99.25-1.49v-.03c.02-.12.05-.24.07-.36.1-.55.17-1.11.25-1.66.02-.19.05-.4.07-.59.12-.85.2-1.7.27-2.57.07-.75.14-1.51.15-2.27.02-.1.02-.19.02-.29.02-.09.02-.17.02-.26.02-.1.02-.23.02-.33,0-.09.02-.17.02-.26.03-.87.05-1.72.05-2.58,0-.82-.02-1.63-.05-2.43-.03-1.11-.1-2.24-.19-3.35-.07-.87-.15-1.72-.27-2.57-.1-.9-.22-1.8-.37-2.71,0-.03-.02-.09-.03-.14-.08-.62-.2-1.27-.34-1.91-.02-.17-.05-.35-.1-.54-.07-.33-.14-.64-.2-.95-.12-.57-.24-1.13-.39-1.7-.19-.8-.39-1.58-.61-2.38-.15-.56-.32-1.09-.49-1.63-.15-.56-.34-1.11-.53-1.66-.36-1.08-.76-2.15-1.19-3.23-.46-1.14-.93-2.29-1.46-3.42-.2-.45-.41-.88-.63-1.34-.9-1.86-1.89-3.68-2.97-5.45-.27-.47-.58-.92-.87-1.39-.29-.47-.59-.92-.9-1.37-.31-.47-.63-.92-.95-1.37-1.92-2.69-4.06-5.27-6.42-7.7-.41-.43-.83-.87-1.27-1.3l-1.33-1.25c-26.88-24.9-68.45-22.82-92.85,4.61h-.02l19.47,18.05,77.98,72.13c.76-.85,1.5-1.72,2.19-2.6-.29.36-.59.71-.92,1.06,0,.04-.02.05-.05.07.02-.02.03-.03.03-.05h.02c.49-.57.95-1.15,1.39-1.73.08-.1.15-.19.24-.29.02-.04.03-.07.08-.1.08-.12.17-.23.25-.35h.02s.07-.1.08-.14c.48-.61.92-1.21,1.34-1.84.02,0,.02-.02.02-.02Z"/>
  <path class="cls-1" d="M254.21,453.37c30.48-28.22,77.62-25.88,105.27,5.25l-6.49,6c-26.03-29.27-70.37-31.49-99.07-4.93-27.02,24.99-30.54,66.6-9.12,95.84-10.08-13.58-15.06-29.71-15.06-45.8,0-20.71,8.24-41.35,24.47-56.36Z"/>
  <path class="cls-1" d="M244.35,554.83s-.08-.12-.14-.19c-.25-.36-.49-.73-.75-1.09-.24-.36-.48-.73-.71-1.09-.14-.23-.29-.43-.41-.66-.39-.61-.76-1.23-1.12-1.86-.17-.29-.34-.57-.49-.85-.03-.07-.08-.14-.12-.21-.12-.23-.25-.47-.39-.71-.14-.23-.25-.47-.37-.71-.03-.05-.07-.12-.1-.17-.15-.29-.31-.59-.44-.9-.17-.29-.31-.59-.46-.9-.15-.29-.29-.61-.42-.92-.41-.83-.78-1.68-1.12-2.51-.19-.43-.37-.88-.53-1.32-.27-.64-.51-1.27-.73-1.91-.22-.61-.42-1.21-.63-1.84v-.07c-.05-.16-.1-.33-.15-.49-.17-.5-.32-1.01-.46-1.53-.1-.29-.17-.57-.25-.87-.08-.29-.15-.59-.24-.88-.15-.57-.31-1.14-.42-1.72-.09-.31-.15-.62-.22-.95-.15-.66-.27-1.32-.41-1.98-.09-.5-.19-.99-.25-1.49v-.03c-.02-.12-.05-.24-.07-.36-.1-.55-.17-1.11-.25-1.66-.02-.19-.05-.4-.07-.59-.12-.85-.2-1.7-.27-2.57-.07-.75-.14-1.51-.15-2.27-.02-.1-.02-.19-.02-.29-.02-.09-.02-.17-.02-.26-.02-.1-.02-.23-.02-.33,0-.09-.02-.17-.02-.26-.03-.87-.05-1.72-.05-2.58,0-.82.02-1.63.05-2.43.03-1.11.1-2.24.19-3.35.07-.87.15-1.72.27-2.57.1-.9.22-1.8.37-2.71,0-.03.02-.09.03-.14.08-.62.2-1.27.34-1.91.02-.17.05-.35.1-.54.07-.33.14-.64.2-.95.12-.57.24-1.13.39-1.7.19-.8.39-1.58.61-2.38.15-.56.32-1.09.49-1.63.15-.56.34-1.11.53-1.66.36-1.08.76-2.15,1.19-3.23.46-1.14.93-2.29,1.46-3.42.2-.45.41-.88.63-1.34.9-1.86,1.89-3.68,2.97-5.45.27-.47.58-.92.87-1.39.29-.47.59-.92.9-1.37.31-.47.63-.92.95-1.37,1.92-2.69,4.06-5.27,6.42-7.7.41-.43.83-.87,1.27-1.3l1.33-1.25c26.9-24.9,68.46-22.82,92.86,4.61h.02l-19.47,18.05-77.98,72.13c-.76-.85-1.5-1.72-2.19-2.6.29.36.59.71.92,1.06,0,.04.02.05.05.07-.02-.02-.03-.03-.03-.05h-.02c-.49-.57-.95-1.15-1.39-1.73-.08-.1-.15-.19-.24-.29-.02-.04-.03-.07-.08-.1-.08-.12-.17-.23-.25-.35h-.02s-.07-.1-.08-.14c-.48-.61-.92-1.21-1.34-1.84-.02,0-.02-.02-.02-.02h-.02Z"/>
  <path class="cls-1" d="M379.34,508.67c-1.38,0-2.45-.38-3.21-1.14-.69-.83-1.03-1.93-1.03-3.31v-64.84c0-1.45.38-2.56,1.14-3.31.76-.76,1.86-1.14,3.31-1.14h38.01c1.31,0,2.28.31,2.9.93.69.62,1.03,1.55,1.03,2.8,0,1.1-.34,2-1.03,2.69-.62.62-1.59.93-2.9.93h-33.97v61.94c0,1.38-.34,2.49-1.03,3.31-.69.76-1.76,1.14-3.21,1.14ZM426.46,527.31c-1.38,0-2.42-.38-3.11-1.14-.69-.69-1.03-1.73-1.03-3.11v-61.94c0-1.38.34-2.42,1.03-3.11.69-.76,1.69-1.14,3-1.14,1.38,0,2.42.38,3.11,1.14.76.69,1.14,1.73,1.14,3.11v9.84l-1.14-1.45c1.11-3.94,3.28-7.04,6.53-9.32,3.31-2.35,7.25-3.52,11.81-3.52s8.39,1.07,11.7,3.21c3.38,2.07,5.97,5.08,7.77,9.01,1.87,3.87,2.8,8.49,2.8,13.88s-.93,9.94-2.8,13.88c-1.79,3.87-4.35,6.87-7.66,9.01-3.31,2.14-7.25,3.21-11.81,3.21s-8.46-1.14-11.7-3.42c-3.25-2.35-5.45-5.46-6.63-9.32h1.24v26.93c0,1.38-.38,2.42-1.14,3.11-.76.76-1.8,1.14-3.11,1.14ZM446.03,502.14c3.18,0,5.9-.76,8.18-2.28,2.35-1.52,4.14-3.73,5.39-6.63,1.31-2.9,1.97-6.39,1.97-10.46,0-6.28-1.42-11.08-4.25-14.4-2.76-3.31-6.53-4.97-11.29-4.97-3.11,0-5.83.76-8.18,2.28-2.35,1.45-4.18,3.63-5.49,6.53-1.24,2.83-1.86,6.35-1.86,10.57,0,6.21,1.42,11.01,4.25,14.4,2.83,3.31,6.59,4.97,11.29,4.97ZM506.4,508.88c-5.32,0-9.91-1.04-13.78-3.11-3.8-2.14-6.77-5.14-8.91-9.01-2.07-3.87-3.11-8.49-3.11-13.88s1.04-9.81,3.11-13.67c2.07-3.94,4.9-7.01,8.49-9.22,3.66-2.21,7.87-3.31,12.64-3.31,3.38,0,6.42.59,9.11,1.76,2.69,1.1,4.97,2.73,6.84,4.87,1.93,2.14,3.38,4.73,4.35,7.77,1.04,3.04,1.55,6.46,1.55,10.25,0,1.1-.31,1.93-.93,2.49-.62.48-1.52.72-2.69.72h-36.05v-5.49h34.08l-1.66,1.35c0-3.73-.55-6.87-1.66-9.43-1.11-2.62-2.73-4.63-4.87-6.01-2.07-1.38-4.69-2.07-7.87-2.07-3.52,0-6.52.83-9.01,2.49-2.42,1.59-4.25,3.83-5.49,6.73-1.24,2.83-1.87,6.15-1.87,9.94v.62c0,6.35,1.52,11.19,4.56,14.5,3.11,3.31,7.49,4.97,13.15,4.97,2.35,0,4.66-.31,6.94-.93,2.35-.62,4.63-1.66,6.84-3.11.97-.62,1.83-.9,2.59-.83.83,0,1.48.24,1.97.73.48.41.79.97.93,1.66.21.62.14,1.31-.21,2.07-.28.76-.86,1.42-1.76,1.97-2.28,1.66-4.97,2.93-8.08,3.83-3.11.9-6.18,1.35-9.22,1.35ZM554.46,508.67c-1.31,0-2.35-.38-3.11-1.14-.76-.76-1.14-1.83-1.14-3.21v-39.98h-15.12c-2.62,0-3.94-1.14-3.94-3.42,0-1.04.34-1.83,1.03-2.38.69-.62,1.66-.93,2.9-.93h38.74c2.55,0,3.83,1.1,3.83,3.31,0,1.1-.34,1.97-1.03,2.59-.62.55-1.55.83-2.8.83h-15.23v39.98c0,1.38-.35,2.45-1.04,3.21-.62.76-1.66,1.14-3.11,1.14ZM601.72,508.88c-3.45,0-6.56-.66-9.32-1.97-2.69-1.38-4.83-3.25-6.42-5.59-1.59-2.35-2.38-4.97-2.38-7.87,0-3.73.93-6.66,2.8-8.8,1.93-2.14,5.07-3.66,9.43-4.56,4.42-.9,10.43-1.35,18.02-1.35h4.66v5.49h-4.56c-5.59,0-10.01.28-13.26.83-3.18.48-5.42,1.35-6.73,2.59-1.24,1.24-1.87,3-1.87,5.28,0,2.83.97,5.14,2.9,6.94,2,1.8,4.7,2.69,8.08,2.69,2.76,0,5.18-.66,7.25-1.97,2.14-1.31,3.8-3.11,4.97-5.39,1.24-2.28,1.86-4.9,1.86-7.87v-11.81c0-4.28-.86-7.35-2.59-9.22-1.73-1.93-4.56-2.9-8.49-2.9-2.42,0-4.83.31-7.25.93-2.42.62-4.97,1.62-7.66,3-.97.48-1.8.66-2.49.52-.69-.21-1.24-.59-1.66-1.14s-.66-1.17-.72-1.86c-.07-.76.07-1.48.41-2.18.41-.69,1.03-1.24,1.86-1.66,3.04-1.52,6.04-2.62,9.01-3.31,2.97-.69,5.8-1.04,8.49-1.04,4.35,0,7.94.73,10.77,2.18,2.83,1.38,4.94,3.52,6.32,6.42,1.38,2.83,2.07,6.49,2.07,10.98v28.07c0,1.38-.34,2.45-1.04,3.21-.62.76-1.55,1.14-2.8,1.14-1.31,0-2.31-.38-3-1.14-.69-.76-1.04-1.83-1.04-3.21v-8.08h.93c-.55,2.62-1.62,4.87-3.21,6.73-1.52,1.86-3.42,3.31-5.7,4.35-2.28,1.04-4.83,1.55-7.66,1.55ZM699.69,508.88c-6.77,0-12.67-1.52-17.71-4.56-4.97-3.11-8.84-7.46-11.6-13.05-2.69-5.59-4.04-12.22-4.04-19.89,0-5.8.76-10.98,2.28-15.54,1.59-4.63,3.83-8.53,6.73-11.7,2.9-3.25,6.39-5.73,10.46-7.46,4.14-1.8,8.77-2.69,13.88-2.69,6.9,0,12.84,1.52,17.82,4.56,5.04,3.04,8.91,7.35,11.6,12.95,2.76,5.52,4.14,12.12,4.14,19.78,0,5.8-.79,11.01-2.38,15.64-1.59,4.63-3.83,8.56-6.73,11.81-2.9,3.25-6.42,5.77-10.57,7.56-4.07,1.73-8.7,2.59-13.88,2.59ZM699.69,501.31c5.25,0,9.67-1.17,13.26-3.52,3.66-2.35,6.46-5.77,8.39-10.25,1.93-4.49,2.9-9.87,2.9-16.16,0-9.46-2.14-16.78-6.42-21.96-4.21-5.25-10.25-7.87-18.13-7.87-5.11,0-9.49,1.17-13.15,3.52-3.59,2.35-6.35,5.77-8.29,10.25-1.93,4.42-2.9,9.77-2.9,16.05,0,9.39,2.14,16.75,6.42,22.06,4.28,5.25,10.25,7.87,17.92,7.87ZM751.96,527.31c-1.38,0-2.42-.38-3.11-1.14-.69-.69-1.04-1.73-1.04-3.11v-61.94c0-1.38.34-2.42,1.04-3.11.69-.76,1.69-1.14,3-1.14,1.38,0,2.42.38,3.11,1.14.76.69,1.14,1.73,1.14,3.11v9.84l-1.14-1.45c1.1-3.94,3.28-7.04,6.52-9.32,3.31-2.35,7.25-3.52,11.81-3.52s8.39,1.07,11.7,3.21c3.38,2.07,5.97,5.08,7.77,9.01,1.87,3.87,2.8,8.49,2.8,13.88s-.93,9.94-2.8,13.88c-1.79,3.87-4.35,6.87-7.66,9.01-3.31,2.14-7.25,3.21-11.81,3.21s-8.46-1.14-11.7-3.42c-3.25-2.35-5.45-5.46-6.63-9.32h1.24v26.93c0,1.38-.38,2.42-1.14,3.11-.76.76-1.8,1.14-3.11,1.14ZM771.54,502.14c3.18,0,5.9-.76,8.18-2.28,2.35-1.52,4.14-3.73,5.39-6.63,1.31-2.9,1.97-6.39,1.97-10.46,0-6.28-1.42-11.08-4.25-14.4-2.76-3.31-6.52-4.97-11.29-4.97-3.11,0-5.83.76-8.18,2.28-2.35,1.45-4.18,3.63-5.49,6.53-1.24,2.83-1.87,6.35-1.87,10.57,0,6.21,1.42,11.01,4.25,14.4,2.83,3.31,6.59,4.97,11.29,4.97ZM823.82,508.67c-1.31,0-2.35-.38-3.11-1.14-.76-.76-1.14-1.83-1.14-3.21v-39.98h-15.12c-2.62,0-3.94-1.14-3.94-3.42,0-1.04.34-1.83,1.03-2.38.69-.62,1.66-.93,2.9-.93h38.74c2.55,0,3.83,1.1,3.83,3.31,0,1.1-.34,1.97-1.03,2.59-.62.55-1.56.83-2.8.83h-15.23v39.98c0,1.38-.35,2.45-1.04,3.21-.62.76-1.66,1.14-3.11,1.14ZM875.96,508.88c-4.9,0-9.15-1.07-12.74-3.21-3.59-2.14-6.39-5.14-8.39-9.01-1.93-3.94-2.9-8.56-2.9-13.88,0-4.01.55-7.6,1.66-10.77,1.11-3.25,2.73-6.01,4.87-8.29,2.14-2.28,4.66-4.01,7.56-5.18,2.97-1.24,6.28-1.86,9.94-1.86,4.9,0,9.15,1.07,12.74,3.21,3.59,2.14,6.35,5.18,8.29,9.11,2,3.87,3,8.46,3,13.78,0,4.01-.55,7.6-1.66,10.77-1.11,3.18-2.73,5.94-4.87,8.29-2.14,2.28-4.69,4.04-7.66,5.28-2.9,1.17-6.18,1.76-9.84,1.76ZM875.96,502.14c3.11,0,5.83-.76,8.18-2.28,2.35-1.52,4.14-3.73,5.39-6.63,1.31-2.9,1.97-6.39,1.97-10.46,0-6.28-1.41-11.08-4.25-14.4-2.76-3.31-6.52-4.97-11.29-4.97-3.18,0-5.94.76-8.29,2.28-2.28,1.45-4.07,3.63-5.39,6.53-1.24,2.83-1.86,6.35-1.86,10.57,0,6.21,1.41,11.01,4.25,14.4,2.83,3.31,6.59,4.97,11.29,4.97Z"/>
  <path class="cls-1" d="M389.02,562.6v-2.78h-13.8v-16.04h2.18v13.95h8.39v-13.95h2.18v14.02h3.22v4.8h-2.18ZM403.92,560.27c-1.56,0-2.92-.35-4.07-1.04-1.14-.69-2.03-1.67-2.66-2.93-.63-1.26-.95-2.73-.95-4.43s.31-3.27.94-4.55c.62-1.28,1.5-2.26,2.63-2.96,1.14-.69,2.48-1.04,4.03-1.04s2.94.37,4.05,1.1c1.12.72,1.97,1.76,2.54,3.12.58,1.36.84,2.98.79,4.86h-2.23v-.77c-.04-2.08-.49-3.65-1.35-4.71-.85-1.06-2.1-1.59-3.74-1.59s-3.05.56-3.97,1.68c-.91,1.12-1.37,2.71-1.37,4.78s.46,3.59,1.37,4.71c.92,1.11,2.22,1.66,3.91,1.66,1.15,0,2.15-.26,3-.79.86-.53,1.54-1.3,2.03-2.3l2.04.79c-.63,1.4-1.57,2.48-2.81,3.25-1.23.76-2.62,1.14-4.17,1.14ZM397.79,552.41v-1.83h12.25v1.83h-12.25ZM418.06,559.83v-16.04h2.18v6.97h9.05v-6.97h2.18v16.04h-2.18v-6.98h-9.05v6.98h-2.18ZM443.54,559.83v-14.02h-5.69v-2.02h13.56v2.02h-5.69v14.02h-2.18ZM465.02,560.27c-1.48,0-2.72-.37-3.74-1.11-1.02-.75-1.79-1.77-2.32-3.04-.52-1.29-.79-2.73-.79-4.32s.26-3.07.79-4.34c.54-1.28,1.32-2.28,2.35-3.02,1.03-.73,2.3-1.1,3.8-1.1s2.72.37,3.77,1.11c1.05.74,1.85,1.75,2.41,3.03.56,1.28.85,2.71.85,4.31s-.28,3.05-.85,4.32c-.56,1.28-1.38,2.29-2.44,3.04-1.06.74-2.34,1.11-3.83,1.11ZM457.8,566.96v-23.17h1.96v12.08h.24v11.1h-2.2ZM464.8,558.24c1.12,0,2.05-.28,2.79-.85.74-.56,1.3-1.33,1.66-2.3.38-.98.56-2.08.56-3.3s-.18-2.3-.55-3.27c-.37-.97-.93-1.74-1.68-2.3-.74-.56-1.69-.85-2.84-.85s-2.05.27-2.79.82c-.73.54-1.28,1.3-1.65,2.27-.37.96-.55,2.07-.55,3.33s.18,2.35.55,3.33c.37.97.92,1.73,1.66,2.29.74.55,1.68.83,2.82.83ZM488.46,559.83v-16.04h12.76v16.04h-2.18v-13.95h-8.39v13.95h-2.18ZM516.16,560.27c-1.48,0-2.72-.37-3.74-1.11-1.02-.75-1.79-1.77-2.32-3.04-.52-1.29-.79-2.73-.79-4.32s.26-3.07.79-4.34c.54-1.28,1.32-2.28,2.35-3.02,1.03-.73,2.3-1.1,3.8-1.1s2.72.37,3.77,1.11c1.05.74,1.85,1.75,2.41,3.03.56,1.28.85,2.71.85,4.31s-.28,3.05-.85,4.32c-.56,1.28-1.38,2.29-2.44,3.04-1.06.74-2.34,1.11-3.83,1.11ZM508.94,566.96v-23.17h1.96v12.08h.24v11.1h-2.2ZM515.93,558.24c1.12,0,2.05-.28,2.79-.85.74-.56,1.3-1.33,1.66-2.3.38-.98.56-2.08.56-3.3s-.18-2.3-.55-3.27c-.37-.97-.93-1.74-1.68-2.3-.74-.56-1.69-.85-2.84-.85s-2.05.27-2.79.82c-.73.54-1.28,1.3-1.65,2.27-.37.96-.55,2.07-.55,3.33s.18,2.35.55,3.33c.37.97.92,1.73,1.66,2.29.74.55,1.68.83,2.82.83ZM536.8,560.27c-1.6,0-2.96-.36-4.09-1.09-1.13-.72-1.99-1.72-2.6-3-.6-1.28-.91-2.74-.91-4.4s.31-3.16.92-4.43c.61-1.27,1.49-2.25,2.61-2.96,1.14-.71,2.49-1.07,4.06-1.07s2.97.36,4.1,1.08c1.14.71,2.01,1.71,2.6,2.99.6,1.27.9,2.73.9,4.38s-.3,3.16-.9,4.44c-.6,1.27-1.48,2.26-2.61,2.97-1.14.71-2.5,1.07-4.08,1.07ZM536.8,558.18c1.78,0,3.11-.59,3.98-1.77.87-1.19,1.31-2.73,1.31-4.62s-.44-3.49-1.32-4.63c-.87-1.15-2.19-1.72-3.97-1.72-1.2,0-2.19.27-2.97.82-.77.53-1.35,1.28-1.74,2.24-.38.95-.56,2.05-.56,3.3,0,1.93.44,3.48,1.34,4.65.89,1.16,2.2,1.74,3.94,1.74ZM556.73,560.27c-1.61,0-3.02-.35-4.23-1.06-1.2-.71-2.14-1.7-2.84-2.96l1.75-1.11c.58.99,1.31,1.74,2.18,2.26.87.51,1.87.77,3,.77s2.12-.27,2.84-.82c.71-.54,1.07-1.29,1.07-2.24,0-.65-.15-1.17-.46-1.56-.3-.39-.75-.66-1.37-.83-.6-.17-1.36-.25-2.27-.25h-1.9v-1.87h1.87c1.11,0,2-.2,2.67-.59.68-.41,1.02-1.04,1.02-1.9,0-.91-.34-1.58-1.02-2.02-.67-.45-1.48-.67-2.42-.67s-1.85.2-2.7.59c-.84.39-1.55.89-2.12,1.5l-1.4-1.47c.8-.88,1.74-1.55,2.81-2.01,1.08-.47,2.27-.7,3.58-.7,1.03,0,1.96.18,2.79.55.84.36,1.51.88,1.99,1.57.5.69.74,1.52.74,2.5,0,.91-.22,1.7-.67,2.36-.44.66-1.05,1.21-1.86,1.65l-.12-.82c.69.13,1.27.41,1.72.83.46.43.79.94,1.01,1.53.22.59.33,1.2.33,1.81,0,1.02-.27,1.9-.8,2.64-.52.73-1.24,1.3-2.15,1.71-.9.4-1.92.59-3.05.59ZM576.78,560.27c-1.48,0-2.72-.37-3.74-1.11-1.02-.75-1.79-1.77-2.32-3.04-.52-1.29-.79-2.73-.79-4.32s.26-3.07.79-4.34c.54-1.28,1.32-2.28,2.35-3.02,1.03-.73,2.3-1.1,3.8-1.1s2.72.37,3.77,1.11c1.05.74,1.85,1.75,2.41,3.03.56,1.28.85,2.71.85,4.31s-.28,3.05-.85,4.32c-.56,1.28-1.38,2.29-2.44,3.04-1.06.74-2.34,1.11-3.83,1.11ZM569.56,566.96v-23.17h1.96v12.08h.24v11.1h-2.2ZM576.56,558.24c1.12,0,2.05-.28,2.79-.85.74-.56,1.3-1.33,1.66-2.3.38-.98.56-2.08.56-3.3s-.18-2.3-.55-3.27c-.37-.97-.93-1.74-1.68-2.3-.74-.56-1.69-.85-2.84-.85s-2.05.27-2.79.82c-.73.54-1.28,1.3-1.65,2.27-.37.96-.55,2.07-.55,3.33s.18,2.35.55,3.33c.37.97.92,1.73,1.66,2.29.74.55,1.68.83,2.82.83ZM595.31,560.27c-1.21,0-2.22-.22-3.04-.65-.81-.44-1.42-1.02-1.83-1.74-.41-.72-.61-1.51-.61-2.36s.17-1.61.52-2.23c.36-.62.84-1.13,1.44-1.53.61-.4,1.32-.7,2.12-.91.81-.2,1.71-.37,2.69-.52.99-.16,1.96-.29,2.9-.4.95-.12,1.78-.23,2.5-.34l-.77.48c.03-1.58-.28-2.76-.92-3.52-.64-.76-1.76-1.14-3.36-1.14-1.1,0-2.03.25-2.79.74-.75.5-1.28,1.28-1.59,2.35l-2.12-.62c.37-1.44,1.1-2.55,2.21-3.34,1.11-.79,2.55-1.19,4.32-1.19,1.46,0,2.71.28,3.73.83,1.03.54,1.76,1.34,2.18,2.38.2.47.33.99.39,1.56.06.57.09,1.16.09,1.75v9.97h-1.95v-4.02l.56.24c-.54,1.38-1.39,2.43-2.54,3.15-1.15.72-2.52,1.09-4.13,1.09ZM595.56,558.39c1.02,0,1.91-.18,2.67-.55s1.38-.87,1.84-1.5c.47-.64.77-1.37.91-2.17.12-.52.18-1.08.19-1.69,0-.62.01-1.09.01-1.4l.83.43c-.74.1-1.55.2-2.42.3-.86.1-1.71.21-2.55.34-.83.13-1.58.28-2.26.46-.46.13-.9.31-1.32.55-.43.23-.78.53-1.05.92-.27.39-.4.87-.4,1.44,0,.47.11.92.34,1.35.24.44.61.8,1.13,1.08.52.29,1.22.43,2.08.43ZM620.61,559.83v-5.97c-.54.27-1.19.5-1.97.7-.78.2-1.62.3-2.53.3-1.62,0-2.94-.36-3.95-1.08-1.01-.72-1.67-1.77-1.98-3.13-.1-.41-.17-.84-.21-1.29-.03-.46-.05-.87-.06-1.23,0-.37-.01-.63-.01-.79v-3.54h2.2v3.54c0,.33.01.7.03,1.11.02.42.07.82.13,1.22.2,1.08.64,1.9,1.34,2.45.7.55,1.69.83,2.96.83.79,0,1.54-.1,2.24-.3.71-.21,1.32-.49,1.81-.83v-8.02h2.18v16.04h-2.18ZM630.5,559.83v-16.04h2.18v6.97h9.05v-6.97h2.18v16.04h-2.18v-6.98h-9.05v6.98h-2.18ZM658.33,560.27c-1.59,0-2.96-.36-4.08-1.09-1.13-.72-2-1.72-2.6-3-.6-1.28-.91-2.74-.91-4.4s.31-3.16.92-4.43c.61-1.27,1.49-2.25,2.62-2.96,1.14-.71,2.49-1.07,4.05-1.07s2.97.36,4.1,1.08c1.14.71,2,1.71,2.6,2.99.6,1.27.91,2.73.91,4.38s-.3,3.16-.91,4.44c-.6,1.27-1.48,2.26-2.62,2.97-1.14.71-2.5,1.07-4.08,1.07ZM658.33,558.18c1.78,0,3.11-.59,3.98-1.77.87-1.19,1.31-2.73,1.31-4.62s-.44-3.49-1.32-4.63c-.87-1.15-2.19-1.72-3.97-1.72-1.2,0-2.19.27-2.97.82-.77.53-1.35,1.28-1.74,2.24-.38.95-.56,2.05-.56,3.3,0,1.93.44,3.48,1.34,4.65.89,1.16,2.2,1.74,3.94,1.74ZM679.44,541.88c-.7,0-1.35-.17-1.93-.52-.59-.35-1.05-.81-1.4-1.38-.34-.58-.51-1.23-.51-1.93h1.81c0,.55.2,1.03.59,1.43.4.4.87.59,1.43.59s1.04-.2,1.43-.59c.4-.4.59-.87.59-1.43h1.81c0,.7-.17,1.35-.52,1.93-.34.57-.8,1.03-1.38,1.38-.58.35-1.23.52-1.93.52ZM685.53,543.78v16.04h-2.12v-12.49l-8.79,12.49h-1.84v-16.04h2.12v12.39l8.81-12.39h1.83ZM709.47,560.27c-1.59,0-2.96-.36-4.08-1.09s-2-1.72-2.6-3c-.6-1.28-.9-2.74-.9-4.4s.31-3.16.92-4.43c.61-1.27,1.48-2.25,2.61-2.96,1.14-.71,2.49-1.07,4.05-1.07s2.97.36,4.1,1.08c1.14.71,2,1.71,2.6,2.99.6,1.27.91,2.73.91,4.38s-.3,3.16-.91,4.44c-.6,1.27-1.48,2.26-2.61,2.97-1.14.71-2.5,1.07-4.09,1.07ZM709.47,558.18c1.78,0,3.11-.59,3.98-1.77.87-1.19,1.31-2.73,1.31-4.62s-.44-3.49-1.32-4.63c-.87-1.15-2.19-1.72-3.97-1.72-1.2,0-2.19.27-2.97.82-.77.53-1.35,1.28-1.74,2.24-.38.95-.56,2.05-.56,3.3,0,1.93.44,3.48,1.34,4.65.89,1.16,2.2,1.74,3.94,1.74ZM731.12,560.27c-1.48,0-2.72-.37-3.74-1.11-1.02-.75-1.79-1.77-2.32-3.04-.52-1.29-.79-2.73-.79-4.32s.26-3.07.79-4.34c.54-1.28,1.32-2.28,2.35-3.02,1.03-.73,2.3-1.1,3.8-1.1s2.72.37,3.77,1.11c1.05.74,1.85,1.75,2.41,3.03.56,1.28.85,2.71.85,4.31s-.28,3.05-.85,4.32c-.56,1.28-1.38,2.29-2.44,3.04-1.06.74-2.34,1.11-3.83,1.11ZM723.9,566.96v-23.17h1.96v12.08h.24v11.1h-2.2ZM730.9,558.24c1.12,0,2.05-.28,2.79-.85.74-.56,1.3-1.33,1.66-2.3.38-.98.56-2.08.56-3.3s-.18-2.3-.55-3.27c-.37-.97-.93-1.74-1.68-2.3-.74-.56-1.69-.85-2.84-.85s-2.05.27-2.79.82c-.73.54-1.28,1.3-1.65,2.27-.37.96-.55,2.07-.55,3.33s.18,2.35.55,3.33c.37.97.92,1.73,1.66,2.29.74.55,1.68.83,2.82.83ZM749.42,559.83v-14.02h-5.69v-2.02h13.56v2.02h-5.69v14.02h-2.18ZM770.1,560.27c-1.6,0-2.96-.36-4.08-1.09-1.13-.72-2-1.72-2.6-3-.6-1.28-.91-2.74-.91-4.4s.31-3.16.92-4.43c.61-1.27,1.49-2.25,2.62-2.96,1.14-.71,2.49-1.07,4.05-1.07s2.97.36,4.1,1.08c1.14.71,2.01,1.71,2.6,2.99.6,1.27.91,2.73.91,4.38s-.3,3.16-.91,4.44c-.6,1.27-1.48,2.26-2.62,2.97-1.14.71-2.5,1.07-4.08,1.07ZM770.1,558.18c1.78,0,3.11-.59,3.98-1.77.87-1.19,1.31-2.73,1.31-4.62s-.44-3.49-1.32-4.63c-.87-1.15-2.19-1.72-3.97-1.72-1.2,0-2.19.27-2.97.82-.77.53-1.35,1.28-1.74,2.24-.38.95-.56,2.05-.56,3.3,0,1.93.44,3.48,1.34,4.65.89,1.16,2.2,1.74,3.94,1.74ZM783.35,563.39v-5.44c.91,0,1.56-.29,1.96-.88.4-.59.72-1.54.97-2.84.17-.84.31-1.75.42-2.72.11-.97.2-2.08.28-3.33.08-1.26.15-2.73.22-4.41h10.61v14.17h1.54v5.44h-2.11v-3.57h-11.79v3.57h-2.09ZM787.05,557.95h8.59v-12.3h-6.42c-.03.75-.07,1.55-.13,2.39-.05.84-.11,1.68-.19,2.53-.07.84-.15,1.63-.25,2.38-.09.73-.2,1.38-.33,1.93-.15.71-.31,1.32-.49,1.83-.17.51-.43.92-.77,1.25ZM812.59,560.27c-1.6,0-2.96-.36-4.09-1.09-1.13-.72-1.99-1.72-2.6-3-.6-1.28-.91-2.74-.91-4.4s.31-3.16.92-4.43c.61-1.27,1.49-2.25,2.61-2.96,1.14-.71,2.49-1.07,4.05-1.07s2.97.36,4.1,1.08c1.14.71,2.01,1.71,2.6,2.99.6,1.27.91,2.73.91,4.38s-.3,3.16-.91,4.44c-.6,1.27-1.48,2.26-2.62,2.97-1.14.71-2.5,1.07-4.08,1.07ZM812.59,558.18c1.78,0,3.11-.59,3.98-1.77.87-1.19,1.31-2.73,1.31-4.62s-.44-3.49-1.32-4.63c-.87-1.15-2.19-1.72-3.97-1.72-1.2,0-2.19.27-2.97.82-.77.53-1.35,1.28-1.74,2.24-.38.95-.56,2.05-.56,3.3,0,1.93.44,3.48,1.34,4.65.89,1.16,2.2,1.74,3.94,1.74ZM827.02,559.83v-16.04h2.18v6.97h9.05v-6.97h2.18v16.04h-2.18v-6.98h-9.05v6.98h-2.18ZM852.51,559.83v-14.02h-5.69v-2.02h13.56v2.02h-5.69v14.02h-2.18ZM879.52,543.78v16.04h-2.12v-12.49l-8.79,12.49h-1.84v-16.04h2.12v12.39l8.81-12.39h1.83ZM900,543.78v16.04h-2.12v-12.49l-8.79,12.49h-1.84v-16.04h2.12v12.39l8.81-12.39h1.83Z"/>
</svg>